<svg width="48" height="48" viewBox="0 0 48 48" fill="none" xmlns="http://www.w3.org/2000/svg">
<path fill-rule="evenodd" clip-rule="evenodd" d="M34.9187 10.4H7.2H3.2V14.4V34.4V38.4H7.2H41.2H45.2V34.4V14.4V10.4H41.2H36.9969V14.4H41.2V34.4H7.2V14.4H34.9187V10.4Z" fill="#E0E0E0"/>
<path fill-rule="evenodd" clip-rule="evenodd" d="M17.2 17.4397C15.3966 17.715 14.015 19.2727 14.015 21.1531C14.015 21.7897 14.1733 22.3893 14.4527 22.9147L14.4436 22.9184C13.3885 23.3555 12.4297 23.9961 11.6222 24.8036C10.8146 25.6112 10.174 26.5699 9.73699 27.625C9.29994 28.6802 9.075 29.811 9.075 30.9531H13.075C13.075 30.3363 13.1965 29.7256 13.4325 29.1558C13.6685 28.586 14.0145 28.0682 14.4506 27.6321C14.8867 27.1959 15.4045 26.85 15.9743 26.614C16.3672 26.4512 16.7796 26.3429 17.2 26.2914V17.4397ZM18.95 26.4067C19.1604 26.4612 19.3673 26.5304 19.569 26.614C20.1388 26.85 20.6566 27.1959 21.0927 27.6321C21.5288 28.0682 21.8748 28.586 22.1108 29.1558C22.3468 29.7256 22.4683 30.3363 22.4683 30.9531H26.4683C26.4683 29.811 26.2434 28.6802 25.8063 27.625C25.3693 26.5699 24.7287 25.6112 23.9211 24.8036C23.1136 23.9961 22.1548 23.3555 21.0997 22.9184L21.0906 22.9147C21.37 22.3893 21.5283 21.7897 21.5283 21.1531C21.5283 19.49 20.4475 18.0793 18.95 17.585V26.4067Z" fill="#E0E0E0"/>
<path d="M30.7625 27.025L36.9969 27.025" stroke="#E0E0E0" stroke-width="4"/>
<path d="M26.825 21.775L37.325 21.775" stroke="#E0E0E0" stroke-width="4"/>
</svg>
